<?xml version="1.0" standalone="no"?>
<!DOCTYPE svg PUBLIC "-//W3C//DTD SVG 20010904//EN"
 "http://www.w3.org/TR/2001/REC-SVG-20010904/DTD/svg10.dtd">
<svg version="1.0" xmlns="http://www.w3.org/2000/svg"
 width="810.000000pt" height="1280.000000pt" viewBox="0 0 810.000000 1280.000000"
 preserveAspectRatio="xMidYMid meet">
<g transform="translate(0.000000,1280.000000) scale(0.100000,-0.100000)"
fill="#000000" stroke="none">
<path d="M4095 12774 c-201 -27 -480 -80 -625 -119 -61 -17 -153 -31 -260 -41
-795 -69 -1444 -320 -1859 -719 -166 -160 -288 -338 -356 -517 -14 -38 -42
-69 -152 -170 -312 -284 -559 -597 -698 -883 -67 -138 -93 -212 -125 -364 -29
-136 -28 -152 17 -311 37 -132 120 -240 249 -323 80 -51 120 -103 303 -394
159 -254 361 -630 361 -673 0 -6 -29 -58 -64 -113 -150 -241 -226 -397 -290
-595 -129 -400 -90 -751 111 -1003 69 -87 117 -129 264 -234 200 -143 382
-213 674 -262 158 -26 697 -26 900 1 581 75 1110 217 1635 438 91 39 182 77
203 86 22 9 41 12 46 6 4 -5 556 -1150 1225 -2544 1358 -2826 1204 -2529 1497
-2896 297 -373 907 -1099 916 -1091 2 3 -17 78 -43 168 -25 90 -95 367 -155
614 -149 613 -204 825 -254 990 -39 128 -122 305 -938 1995 -492 1020 -1035
2147 -1207 2503 -305 631 -312 649 -294 666 10 10 73 51 139 91 182 112 282
180 490 335 738 550 1234 1104 1525 1701 79 162 116 258 145 373 76 305 54
607 -60 836 -135 272 -425 471 -820 563 -110 26 -323 52 -427 52 -106 0 -108
1 -108 69 0 144 -47 335 -117 476 -92 184 -285 408 -477 552 -56 42 -104 81
-108 87 -4 6 -8 28 -8 48 0 61 -29 179 -60 245 -87 188 -323 308 -708 363
-177 25 -259 24 -487 -6z m1059 -378 c68 -68 137 -189 118 -208 -16 -16 -72
20 -84 54 -16 46 -56 118 -89 159 -30 38 -37 59 -19 59 6 0 39 -29 74 -64z
m1961 -1916 c118 -102 210 -247 245 -386 38 -147 53 -601 25 -734 -54 -257
-274 -569 -791 -1123 -378 -404 -888 -815 -1388 -1118 -84 -51 -89 -53 -102
-34 -8 10 -14 26 -14 34 0 9 55 51 128 98 586 376 1112 838 1487 1306 295 367
507 775 572 1102 26 135 24 382 -6 490 -35 130 -100 253 -197 373 -37 44 -15
40 41 -8z m-2745 -3780 c0 -24 3 -22 -221 -116 -378 -157 -841 -310 -999 -328
l-55 -6 70 24 c39 13 138 45 220 71 275 86 607 215 845 328 107 51 140 57 140
27z"/>
</g>
</svg>
